<?xml version="1.0" encoding="UTF-8" standalone="no"?>
<!-- Created with Inkscape (http://www.inkscape.org/) -->

<svg
   width="180.07892mm"
   height="180.07796mm"
   viewBox="0 0 180.07892 180.07796"
   version="1.1"
   id="svg5"
   xml:space="preserve"
   sodipodi:docname="detective.svg"
   inkscape:version="1.2.2 (b0a8486541, 2022-12-01)"
   xmlns:inkscape="http://www.inkscape.org/namespaces/inkscape"
   xmlns:sodipodi="http://sodipodi.sourceforge.net/DTD/sodipodi-0.dtd"
   xmlns="http://www.w3.org/2000/svg"
   xmlns:svg="http://www.w3.org/2000/svg"><sodipodi:namedview
     id="namedview7"
     pagecolor="#505050"
     bordercolor="#eeeeee"
     borderopacity="1"
     inkscape:showpageshadow="0"
     inkscape:pageopacity="0"
     inkscape:pagecheckerboard="0"
     inkscape:deskcolor="#505050"
     inkscape:document-units="mm"
     showgrid="false"
     inkscape:zoom="0.39108446"
     inkscape:cx="721.07187"
     inkscape:cy="208.39488"
     inkscape:window-width="1920"
     inkscape:window-height="1059"
     inkscape:window-x="0"
     inkscape:window-y="0"
     inkscape:window-maximized="1"
     inkscape:current-layer="g1503" /><defs
     id="defs2" /><g
     inkscape:label="Layer 1"
     inkscape:groupmode="layer"
     id="layer1"
     transform="translate(-246.62836,156.59561)"><g
       id="g1503"><path
         id="path1115"
         style="fill:#5954fc;fill-opacity:1;stroke-width:0.476458"
         d="m 422.78556,-40.43009 c -0.43027,-0.66423 -0.86687,-1.335965 -1.33532,-2.015898 -0.29349,-0.425991 -0.59358,-0.851375 -0.89762,-1.272274 -0.30403,-0.420899 -0.61229,-0.837232 -0.92345,-1.244368 -0.31117,-0.407136 -0.62513,-0.804889 -0.94,-1.189592 -0.31487,-0.384702 -0.63052,-0.756412 -0.94568,-1.110009 -0.31516,-0.353598 -0.62951,-0.689218 -0.94154,-1.00304 -0.31203,-0.313822 -0.6216,-0.60589 -0.92708,-0.871265 -0.30548,-0.265375 -0.62915,-0.537255 -0.96738,-0.81442 -0.33823,-0.277166 -0.69117,-0.559221 -1.05523,-0.844393 -0.72813,-0.570344 -1.50134,-1.153041 -2.29133,-1.732711 -0.79,-0.57967 -1.59709,-1.156413 -2.39366,-1.715141 -0.79657,-0.558728 -1.58224,-1.099618 -2.33009,-1.607137 -1.4957,-1.015036 -2.839,-1.897354 -3.80803,-2.525944 -0.96904,-0.62859 -1.56373,-1.003556 -1.56373,-1.003556 0,0 -0.1339,-0.139019 -0.33952,-0.38809 -0.10281,-0.124535 -0.22323,-0.27638 -0.3545,-0.452169 -0.13127,-0.175788 -0.27311,-0.375614 -0.41754,-0.595312 -0.14443,-0.219699 -0.2918,-0.459454 -0.43408,-0.715719 -0.14229,-0.256265 -0.27978,-0.528932 -0.40463,-0.814421 -0.12485,-0.285488 -0.23706,-0.583532 -0.32918,-0.890901 -0.0461,-0.153685 -0.087,-0.309894 -0.12196,-0.467672 -0.035,-0.157778 -0.0637,-0.31757 -0.0858,-0.478524 -0.022,-0.160953 -0.0356,-0.333859 -0.0408,-0.517281 -0.005,-0.183421 -0.002,-0.377221 0.007,-0.579809 0.0189,-0.405178 0.0645,-0.845372 0.12919,-1.307414 0.0647,-0.462042 0.14797,-0.945655 0.24133,-1.438155 0.0934,-0.4925 0.19687,-0.993796 0.30179,-1.490348 0.20985,-0.993105 0.42594,-1.968072 0.57929,-2.81895 0.0767,-0.425439 0.13781,-0.819681 0.17467,-1.169954 0.0184,-0.175137 0.0304,-0.339532 0.0357,-0.490926 0.005,-0.151394 0.004,-0.290095 -0.006,-0.414445 -0.0201,-0.248704 -0.0509,-0.47101 -0.093,-0.669727 -0.0421,-0.198717 -0.0958,-0.373567 -0.16175,-0.526583 -0.0659,-0.153016 -0.14405,-0.284243 -0.23564,-0.395841 -0.0458,-0.0558 -0.0947,-0.106714 -0.14728,-0.152963 -0.0526,-0.04625 -0.10892,-0.08782 -0.16847,-0.125056 -0.11909,-0.07447 -0.25206,-0.131499 -0.40049,-0.173117 -0.14843,-0.04162 -0.31184,-0.06808 -0.49144,-0.08113 -0.1796,-0.01305 -0.37548,-0.01278 -0.58808,-0.0016 -0.2126,0.01123 -0.44193,0.03337 -0.68936,0.0646 -0.24744,0.03122 -0.54047,0.07309 -0.86817,0.125573 -0.32769,0.05249 -0.69025,0.115854 -1.07745,0.19017 -0.3872,0.07432 -0.7988,0.159599 -1.22473,0.256315 -0.42593,0.09672 -0.8661,0.204843 -1.31,0.324528 -0.4439,0.119685 -0.89164,0.251068 -1.33273,0.394291 -0.4411,0.143223 -0.87593,0.298274 -1.29347,0.465605 -0.41753,0.16733 -0.81794,0.346978 -1.19114,0.538985 -0.1866,0.096 -0.36633,0.19486 -0.53795,0.297139 -0.17162,0.102279 -0.33481,0.207634 -0.48886,0.31626 -0.3081,0.217253 -0.6248,0.428451 -0.94309,0.630969 -0.31829,0.202518 -0.63836,0.39661 -0.95292,0.580843 -0.62912,0.368468 -1.23712,0.696964 -1.76785,0.971001 -0.53072,0.274037 -0.98433,0.493707 -1.30534,0.644921 -0.32102,0.151215 -0.50902,0.233578 -0.50902,0.233578 l -2.89491,-5.354712 c 0,0 0.10291,-0.216668 0.24598,-0.606165 0.0715,-0.194748 0.15301,-0.432376 0.23668,-0.707967 0.0837,-0.27559 0.16956,-0.588898 0.24959,-0.93431 0.08,-0.345412 0.15434,-0.72285 0.21498,-1.127063 0.0606,-0.404212 0.10732,-0.835268 0.13281,-1.287259 0.0127,-0.225996 0.0202,-0.457107 0.0212,-0.692981 10e-4,-0.235875 -0.004,-0.476511 -0.017,-0.720887 -0.0127,-0.244375 -0.0326,-0.492642 -0.061,-0.74414 -0.0284,-0.251499 -0.0651,-0.506534 -0.1111,-0.763778 -0.0921,-0.514488 -0.15941,-0.967039 -0.20671,-1.365808 -0.0473,-0.398769 -0.0748,-0.743542 -0.0868,-1.04128 -0.012,-0.297738 -0.009,-0.548766 0.005,-0.76016 0.0138,-0.211395 0.0377,-0.383226 0.0677,-0.522966 0.03,-0.13974 0.0661,-0.24744 0.10284,-0.330212 0.0368,-0.08277 0.0745,-0.140374 0.10852,-0.180868 0.034,-0.04049 0.0645,-0.06358 0.0863,-0.07648 0.0218,-0.0129 0.0351,-0.0155 0.0351,-0.0155 0,0 0.45418,0.05703 1.16995,0.117822 0.35789,0.0304 0.78098,0.06195 1.2454,0.08733 0.46443,0.02539 0.97024,0.04477 1.49293,0.05168 0.5227,0.0069 1.06257,0.0013 1.59526,-0.02377 0.26634,-0.01253 0.53085,-0.03018 0.79065,-0.05323 0.25979,-0.02304 0.5145,-0.05157 0.76171,-0.08682 0.2472,-0.03524 0.48661,-0.07697 0.7152,-0.126091 0.22858,-0.04913 0.44667,-0.105838 0.6506,-0.170532 0.20394,-0.06469 0.39365,-0.137679 0.56689,-0.219625 0.17325,-0.08195 0.33012,-0.173003 0.46664,-0.273885 0.13653,-0.100883 0.24616,-0.207004 0.33228,-0.31781 0.0861,-0.110806 0.14834,-0.226116 0.18966,-0.344682 0.0413,-0.118566 0.062,-0.240157 0.0641,-0.364319 0.002,-0.124161 -0.0144,-0.250678 -0.046,-0.378271 -0.0316,-0.127594 -0.0783,-0.256645 -0.13797,-0.385506 -0.0596,-0.128862 -0.13182,-0.257541 -0.21394,-0.385507 -0.0821,-0.127965 -0.17434,-0.254915 -0.27337,-0.379821 -0.099,-0.124907 -0.20488,-0.247737 -0.31523,-0.36742 -0.22071,-0.239366 -0.4584,-0.466303 -0.69091,-0.671793 -0.23251,-0.205491 -0.46025,-0.389849 -0.65991,-0.544153 -0.39932,-0.308608 -0.68781,-0.497644 -0.68781,-0.497644 l -9.38444,-3.733622 c 0,0 -0.11833,-0.522804 -0.37724,-1.414901 -0.12946,-0.446049 -0.29391,-0.984543 -0.49661,-1.595768 -0.2027,-0.611229 -0.4434,-1.295119 -0.72502,-2.032959 -0.14082,-0.36891 -0.29211,-0.75129 -0.45372,-1.14463 -0.16161,-0.39334 -0.33365,-0.79784 -0.51677,-1.21078 -0.18311,-0.41294 -0.37706,-0.83473 -0.58239,-1.26245 -0.20533,-0.42772 -0.42235,-0.86147 -0.65061,-1.29915 -0.22826,-0.43768 -0.46795,-0.87906 -0.71985,-1.32188 -0.2519,-0.44282 -0.51596,-0.88701 -0.7922,-1.33015 -0.27624,-0.44314 -0.5648,-0.88532 -0.8661,-1.32395 -0.30129,-0.43864 -0.61499,-0.87397 -0.94206,-1.30328 -0.16353,-0.21466 -0.3328,-0.42393 -0.50643,-0.62891 -0.17362,-0.20497 -0.3516,-0.40552 -0.53433,-0.60099 -0.18273,-0.19548 -0.36983,-0.38589 -0.56069,-0.57206 -0.19086,-0.18618 -0.38593,-0.36812 -0.58394,-0.54519 -0.39602,-0.35413 -0.80498,-0.68987 -1.2237,-1.00872 -0.41873,-0.31885 -0.84695,-0.62079 -1.28054,-0.90589 -0.43359,-0.2851 -0.8725,-0.55378 -1.3131,-0.80667 -0.44061,-0.25288 -0.88314,-0.48989 -1.32292,-0.7121 -0.43978,-0.22221 -0.87682,-0.42962 -1.30793,-0.6227 -0.4311,-0.19308 -0.85614,-0.37196 -1.27072,-0.53743 -0.41459,-0.16548 -0.81901,-0.31741 -1.20923,-0.45682 -0.39022,-0.13942 -0.76595,-0.26598 -1.12396,-0.38086 -0.71603,-0.22977 -1.36003,-0.41205 -1.90015,-0.55294 -0.54011,-0.14088 -0.97652,-0.24059 -1.27795,-0.30489 -0.30144,-0.0643 -0.46768,-0.0935 -0.46768,-0.0935 0,0 -0.86366,-0.0684 -2.20451,-0.13384 -0.67043,-0.0327 -1.46035,-0.0648 -2.32131,-0.0868 -0.86095,-0.022 -1.79261,-0.0337 -2.74763,-0.0269 -0.57302,0.004 -1.15463,0.0145 -1.73375,0.0341 -0.57912,0.0197 -1.15593,0.0482 -1.72031,0.0873 -0.56438,0.0391 -1.11606,0.0889 -1.64486,0.15141 -0.52879,0.0625 -1.03452,0.1376 -1.50688,0.22737 -0.31491,0.0599 -0.63991,0.1372 -0.97255,0.22997 -0.33265,0.0928 -0.67322,0.20122 -1.02009,0.32452 -0.34688,0.1233 -0.69972,0.26142 -1.0573,0.4129 -0.35758,0.15147 -0.71992,0.31623 -1.08469,0.49351 -0.36478,0.17728 -0.73226,0.36669 -1.10071,0.5674 -0.36846,0.20072 -0.73777,0.4128 -1.10639,0.63459 -0.36862,0.22179 -0.73647,0.45353 -1.10174,0.69402 -0.36528,0.24048 -0.72783,0.4899 -1.08624,0.74672 -0.35841,0.25682 -0.71289,0.5209 -1.06092,0.79168 -0.34803,0.27079 -0.68957,0.54806 -1.02371,0.83044 -0.33414,0.28239 -0.66047,0.56983 -0.9772,0.86145 -0.31673,0.29161 -0.62403,0.58726 -0.91984,0.88573 -0.29581,0.29848 -0.58025,0.59982 -0.85163,0.90279 -0.27138,0.30297 -0.52965,0.60803 -0.77308,0.91312 -0.24343,0.3051 -0.47223,0.61034 -0.6842,0.91519 -0.21196,0.30486 -0.40696,0.60882 -0.58394,0.91106 -0.17698,0.30224 -0.35039,0.6286 -0.51935,0.9741 -0.16896,0.3455 -0.33349,0.71042 -0.49402,1.09089 -0.16054,0.38047 -0.31701,0.77623 -0.46871,1.18339 -0.1517,0.40716 -0.29885,0.82553 -0.44132,1.25109 -0.14246,0.42555 -0.28007,0.85831 -0.41289,1.29397 -0.13283,0.43567 -0.26066,0.87458 -0.38344,1.31207 -0.24555,0.87498 -0.47093,1.74505 -0.67386,2.577623 -0.20293,0.83257 -0.38347,1.627413 -0.54054,2.351277 -0.15706,0.723864 -0.29047,1.377114 -0.39842,1.925981 -0.21591,1.097734 -0.33021,1.778703 -0.33021,1.778703 0,0 -0.0169,0.228537 -0.0904,0.617533 -0.0368,0.194498 -0.0877,0.42919 -0.15813,0.695565 -0.0704,0.266375 -0.1602,0.564396 -0.2744,0.885734 -0.11419,0.321337 -0.2525,0.665875 -0.42065,1.02526 -0.0841,0.179693 -0.17545,0.363288 -0.27491,0.549321 -0.0995,0.186033 -0.20737,0.374564 -0.3235,0.564823 -0.11613,0.190259 -0.24059,0.382271 -0.37465,0.574642 -0.13407,0.192371 -0.27772,0.385374 -0.43098,0.577743 -0.15327,0.192368 -0.31615,0.383873 -0.4899,0.574125 -0.17374,0.190251 -0.35796,0.378803 -0.55345,0.564823 -0.78195,0.744084 -1.7669,1.706545 -2.80396,2.731616 -1.03707,1.025072 -2.12638,2.113101 -3.11816,3.107821 -1.98356,1.989441 -3.57601,3.606498 -3.57601,3.606498 0,0 0.0226,0.02948 0.0739,0.077 0.0513,0.04752 0.13105,0.113546 0.24494,0.187586 0.1139,0.07404 0.26187,0.15609 0.44959,0.235644 0.18771,0.07955 0.41555,0.156595 0.68833,0.220658 0.13639,0.03203 0.28362,0.06053 0.44338,0.08475 0.15976,0.02422 0.33171,0.04409 0.51625,0.05788 0.18454,0.01378 0.38201,0.0215 0.59273,0.02222 0.21072,7.23e-4 0.43503,-0.0057 0.67334,-0.02067 0.23832,-0.01497 0.49079,-0.03855 0.7581,-0.07183 0.26731,-0.03328 0.54926,-0.07601 0.84697,-0.130225 0.29771,-0.05422 0.611,-0.119625 0.94051,-0.197404 0.32952,-0.07778 0.67546,-0.168366 1.03818,-0.272335 2.90183,-0.831749 4.85027,-1.41019 6.07353,-1.78077 1.22326,-0.37058 1.72135,-0.533301 1.72135,-0.533301 h 5.1e-4 l 2.84531,4.108277 -2.34249,10.646895 c 0,0 -0.0241,0.101012 -0.0413,0.268718 -0.009,0.08385 -0.0157,0.184728 -0.0171,0.297656 -10e-4,0.112928 0.003,0.238119 0.0165,0.371553 0.0137,0.133435 0.0369,0.274756 0.0734,0.42013 0.0365,0.145374 0.0865,0.294638 0.15348,0.443384 0.067,0.148745 0.1511,0.29725 0.25631,0.4408 0.0526,0.07177 0.11054,0.142487 0.17415,0.211356 0.0636,0.06887 0.13319,0.135612 0.20877,0.200505 0.0756,0.06489 0.16057,0.121264 0.25374,0.169498 0.0932,0.04823 0.19453,0.0887 0.3023,0.121957 0.10777,0.03326 0.22167,0.05911 0.34107,0.07906 0.1194,0.01996 0.24401,0.03403 0.37207,0.04237 0.25611,0.01668 0.52653,0.01144 0.79943,-0.0083 0.27291,-0.01971 0.54852,-0.05398 0.81442,-0.09664 0.2659,-0.04265 0.52195,-0.09357 0.75706,-0.145727 0.23511,-0.05215 0.44889,-0.105783 0.62942,-0.153996 0.36106,-0.09642 0.58963,-0.171566 0.58963,-0.171566 0,0 0.0911,0.08016 0.22738,0.219108 0.13631,0.138951 0.31759,0.336952 0.49661,0.573609 0.0895,0.118328 0.17833,0.24635 0.26096,0.381372 0.0826,0.135021 0.15918,0.277188 0.22324,0.423747 0.0641,0.146559 0.11608,0.297677 0.14987,0.450618 0.0338,0.152941 0.0495,0.307303 0.0413,0.461471 -0.0164,0.308333 -0.017,0.607402 0.002,0.888834 0.009,0.140716 0.0232,0.277366 0.0424,0.408244 0.0192,0.130878 0.0436,0.256207 0.0734,0.375171 0.0298,0.118964 0.0652,0.231439 0.10646,0.336413 0.0412,0.104975 0.0882,0.202545 0.14159,0.291456 0.0534,0.08891 0.113,0.169008 0.17932,0.239778 0.0663,0.07077 0.1396,0.131863 0.21962,0.182418 0.08,0.05056 0.16882,0.09103 0.26303,0.12299 0.0942,0.03196 0.19357,0.05548 0.29508,0.07235 0.20301,0.03374 0.41395,0.04072 0.60461,0.03514 0.19066,-0.0056 0.36122,-0.02349 0.48421,-0.04031 0.12299,-0.01682 0.19844,-0.03256 0.19844,-0.03256 0,0 -0.0624,0.0668 -0.154,0.183451 -0.0916,0.116653 -0.2126,0.283296 -0.32969,0.484209 -0.0586,0.100456 -0.11592,0.209597 -0.16847,0.325044 -0.0525,0.115448 -0.10019,0.237413 -0.13849,0.363802 -0.0383,0.12639 -0.0674,0.257392 -0.0832,0.390674 -0.0158,0.133283 -0.018,0.268501 -0.003,0.404627 0.007,0.06806 0.0205,0.133581 0.0393,0.195853 0.0188,0.06227 0.0433,0.121401 0.0723,0.178284 0.0581,0.113766 0.1357,0.217512 0.22841,0.312126 0.0927,0.09461 0.20072,0.18023 0.31936,0.258899 0.11864,0.07867 0.24802,0.150079 0.38395,0.216007 0.27187,0.131857 0.56961,0.241445 0.85887,0.341581 0.28925,0.100136 0.57012,0.190673 0.8077,0.284738 0.0594,0.02352 0.11108,0.05802 0.15606,0.101802 0.045,0.04379 0.0832,0.09697 0.11524,0.15813 0.032,0.06116 0.0576,0.130559 0.078,0.206189 0.0204,0.07563 0.0357,0.157742 0.046,0.244946 0.0206,0.174409 0.0222,0.368745 0.0109,0.572058 -0.0113,0.203314 -0.0358,0.415739 -0.0677,0.624768 -0.0319,0.20903 -0.0711,0.415126 -0.11214,0.606682 -0.041,0.191555 -0.0837,0.368455 -0.12247,0.519348 -0.0775,0.301786 -0.13901,0.498677 -0.13901,0.498677 0,0 -0.0113,0.130169 0.004,0.338998 0.008,0.104414 0.022,0.228304 0.0476,0.365869 0.0256,0.137565 0.0624,0.288474 0.11523,0.446484 0.0528,0.158011 0.12196,0.323108 0.21136,0.488859 0.0894,0.165751 0.19902,0.332207 0.33435,0.492994 0.0677,0.08039 0.14182,0.159391 0.22272,0.236161 0.0809,0.07677 0.16876,0.151683 0.26407,0.223242 0.0953,0.07156 0.19814,0.139879 0.30902,0.204639 0.11089,0.06476 0.22998,0.125528 0.35761,0.181901 0.5105,0.225487 0.85384,0.389932 1.13791,0.511596 0.14204,0.06083 0.26894,0.110946 0.39481,0.152963 0.12587,0.04202 0.25038,0.07591 0.38706,0.103869 0.13667,0.02796 0.28548,0.05007 0.45992,0.06873 0.17444,0.01866 0.37474,0.03393 0.61391,0.04806 0.47834,0.02825 1.11323,0.05177 2.01228,0.09043 0.22476,0.0097 0.45434,0.0074 0.6873,-0.0062 0.23296,-0.01359 0.46925,-0.03851 0.70745,-0.07235 0.2382,-0.03383 0.47835,-0.07659 0.71882,-0.127641 0.24046,-0.05105 0.48112,-0.109933 0.72088,-0.175183 0.23977,-0.06525 0.47859,-0.136997 0.71469,-0.213424 0.2361,-0.07643 0.46971,-0.15778 0.69918,-0.242362 0.45895,-0.169166 0.90158,-0.351703 1.3162,-0.535368 0.41462,-0.183665 0.80117,-0.368605 1.14773,-0.542603 0.34657,-0.173998 0.65318,-0.336808 0.90796,-0.476973 0.50955,-0.28033 0.81184,-0.469222 0.81184,-0.469222 0,0 0.15186,-0.03231 0.39635,-0.06821 0.2445,-0.03591 0.58144,-0.0754 0.95085,-0.08888 0.18471,-0.0067 0.37751,-0.0067 0.57102,0.0031 0.19352,0.0098 0.38779,0.02941 0.57516,0.06305 0.18737,0.03364 0.36806,0.08148 0.53434,0.146245 0.0831,0.03238 0.16264,0.06905 0.23771,0.110587 0.0751,0.04153 0.14572,0.08742 0.21084,0.13901 0.52097,0.412749 1.14814,0.929493 1.64538,1.342553 0.49724,0.41306 0.86454,0.722437 0.86454,0.722437 l -9.3493,8.483719 6.22133,10.78642 -6.97839,27.09033988 -11.71556,-14.53451988 -3.46852,-1.36477 -8.51731,-18.48931 -13.95109,-12.393042 c 0,0 -0.088,-0.0273 -0.22789,-0.05478 -0.13991,-0.02747 -0.33182,-0.05476 -0.54054,-0.05426 -0.10436,2.51e-4 -0.2132,0.0072 -0.32142,0.0248 -0.10823,0.01764 -0.21615,0.04589 -0.31937,0.08785 -0.10321,0.04196 -0.20163,0.09784 -0.29093,0.171049 -0.0893,0.07321 -0.16914,0.163527 -0.23565,0.274919 -0.0333,0.0557 -0.0659,0.09665 -0.0977,0.124023 -0.0318,0.02738 -0.0627,0.04156 -0.093,0.04393 -0.0303,0.0024 -0.0597,-0.007 -0.0884,-0.02635 -0.0286,-0.01933 -0.0568,-0.04859 -0.0837,-0.0863 -0.0539,-0.07543 -0.10434,-0.184584 -0.15089,-0.313676 -0.0465,-0.129093 -0.0891,-0.278335 -0.12764,-0.434599 -0.0771,-0.312528 -0.13758,-0.652946 -0.1788,-0.91519 -0.0412,-0.262243 -0.0631,-0.446484 -0.0631,-0.446484 0,0 0.0572,-0.07205 0.15193,-0.21239 0.0947,-0.140336 0.22686,-0.348672 0.37672,-0.621668 0.0749,-0.136497 0.15434,-0.289112 0.23565,-0.457336 0.0813,-0.168224 0.16428,-0.35188 0.24701,-0.550871 0.0827,-0.19899 0.16521,-0.41354 0.24443,-0.642338 0.0792,-0.228797 0.15507,-0.472026 0.22583,-0.729671 0.0707,-0.257645 0.13643,-0.529404 0.19378,-0.814937 0.0574,-0.285534 0.10672,-0.584641 0.14573,-0.897103 0.039,-0.312463 0.0675,-0.638253 0.0832,-0.976685 0.0157,-0.338432 0.0187,-0.689724 0.006,-1.053166 -0.0125,-0.363441 -0.0406,-0.739053 -0.0863,-1.126546 -0.0457,-0.387492 -0.10945,-0.786759 -0.19327,-1.197343 -0.0838,-0.410583 -0.18782,-0.83284 -0.31471,-1.265555 -0.12688,-0.432716 -0.27624,-0.876264 -0.45113,-1.330152 -0.3498,-0.907776 -0.69355,-1.756802 -1.0325,-2.554366 -0.33895,-0.797564 -0.67347,-1.54333 -1.00407,-2.243274 -0.33061,-0.699944 -0.65761,-1.354471 -0.98237,-1.969389 -0.32476,-0.614917 -0.64701,-1.190228 -0.96842,-1.73271 -0.3214,-0.542483 -0.64167,-1.05215 -0.96221,-1.53479 -0.32055,-0.482641 -0.64159,-0.938169 -0.96377,-1.37356 -0.32218,-0.435391 -0.64572,-0.850353 -0.97203,-1.251086 -0.32632,-0.400734 -0.65511,-0.787669 -0.98806,-1.166338 -0.33294,-0.378669 -0.67887,-0.757672 -1.03663,-1.131713 -0.35775,-0.374042 -0.72739,-0.742643 -1.10742,-1.101225 -0.38003,-0.358582 -0.7707,-0.706922 -1.17047,-1.039213 -0.39978,-0.332291 -0.80877,-0.64896 -1.22577,-0.944129 -0.20849,-0.147584 -0.41916,-0.289541 -0.63148,-0.425813 -0.21233,-0.136273 -0.4265,-0.26655 -0.64234,-0.390158 -0.21584,-0.123607 -0.43312,-0.240778 -0.65216,-0.350366 -0.21903,-0.109587 -0.43954,-0.21171 -0.66146,-0.305924 -0.22191,-0.09421 -0.44524,-0.180379 -0.66972,-0.257866 -0.22449,-0.07749 -0.45023,-0.146267 -0.67696,-0.205672 -0.22673,-0.05941 -0.4545,-0.109375 -0.68317,-0.149345 -0.22866,-0.03997 -0.45805,-0.07022 -0.68833,-0.0894 -0.23028,-0.01918 -0.45749,-0.02033 -0.68109,-0.0057 -0.22361,0.01465 -0.44401,0.04528 -0.65991,0.0894 -0.2159,0.04412 -0.42742,0.101798 -0.63459,0.171049 -0.20717,0.06925 -0.40979,0.150269 -0.60719,0.240295 -0.19741,0.09003 -0.38958,0.189137 -0.5762,0.295589 -0.18661,0.106453 -0.3678,0.219954 -0.5426,0.338481 -0.1748,0.118527 -0.34345,0.242201 -0.50539,0.368453 -0.16195,0.126252 -0.31702,0.255364 -0.46509,0.384989 -0.29614,0.259252 -0.56343,0.520751 -0.79789,0.767396 -0.23445,0.246644 -0.43594,0.478244 -0.60048,0.677478 -0.32907,0.398468 -0.51004,0.667142 -0.51004,0.667142 0,0 -0.0302,0.110551 -0.0744,0.318327 -0.0442,0.207776 -0.10274,0.512894 -0.16071,0.902271 -0.058,0.389376 -0.11537,0.863382 -0.15658,1.408182 -0.0206,0.272401 -0.0369,0.562333 -0.0475,0.868681 -0.0107,0.306349 -0.0154,0.628808 -0.0124,0.965833 0.003,0.337025 0.0136,0.688736 0.0341,1.053165 0.0206,0.364429 0.0511,0.741603 0.093,1.130164 0.0419,0.388561 0.0952,0.788438 0.16226,1.19786 0.0671,0.409421 0.14789,0.82821 0.24392,1.25522 0.096,0.42701 0.20708,0.86247 0.33589,1.303797 0.12881,0.441326 0.2754,0.888632 0.4408,1.341003 0.16541,0.452371 0.34971,0.909799 0.55552,1.369942 0.20582,0.460143 0.43314,0.922869 0.68317,1.387512 0.50006,0.929287 0.91246,1.713869 1.2609,2.385385 0.34844,0.671515 0.63292,1.230468 0.87592,1.708939 0.243,0.478471 0.44464,0.876129 0.62838,1.226282 0.18374,0.350153 0.34921,0.652399 0.51987,0.938961 0.17065,0.286561 0.3466,0.557729 0.55035,0.845426 0.20375,0.287697 0.43527,0.59212 0.7183,0.945679 0.56607,0.707118 1.33727,1.6104 2.49753,2.969328 0.29006,0.339732 0.57225,0.657671 0.84646,0.954463 0.2742,0.296793 0.54035,0.572661 0.7984,0.829407 0.25804,0.256746 0.50772,0.494057 0.7493,0.713652 0.24159,0.219594 0.47488,0.421344 0.6997,0.606681 0.22483,0.185337 0.44131,0.354522 0.64906,0.508496 0.20775,0.153974 0.407,0.293074 0.59738,0.418579 0.19038,0.125505 0.37196,0.237517 0.54467,0.337447 0.17271,0.09993 0.33619,0.18785 0.49092,0.2651 0.30947,0.1545 0.58282,0.266122 0.81856,0.347266 0.23573,0.08114 0.43418,0.131322 0.59376,0.162264 0.15958,0.03094 0.28022,0.04262 0.36122,0.04651 0.081,0.0039 0.12247,0 0.12247,0 l 3.20963,-0.04186 0.52916,2.099613 c 0,0 -0.16732,0.06911 -0.42323,0.196887 -0.12795,0.06389 -0.27807,0.14225 -0.4408,0.234095 -0.16272,0.09184 -0.3377,0.197052 -0.51573,0.314192 -0.17803,0.117141 -0.35892,0.246246 -0.53278,0.386023 -0.17387,0.139778 -0.3407,0.290347 -0.49093,0.450102 -0.0751,0.07988 -0.14632,0.162123 -0.21187,0.246497 -0.0656,0.08437 -0.12576,0.170879 -0.17932,0.259415 -0.0536,0.08854 -0.10039,0.178934 -0.13953,0.271302 -0.0391,0.09237 -0.0702,0.186804 -0.0925,0.28267 -0.0891,0.383464 -0.15097,0.722824 -0.18861,1.028878 -0.0376,0.306053 -0.0515,0.578501 -0.0439,0.828373 0.008,0.249872 0.0366,0.477032 0.0832,0.691942 0.0466,0.21492 0.11129,0.4179 0.19069,0.61909 0.0198,0.0503 0.0503,0.0995 0.0899,0.14779 0.0396,0.0483 0.088,0.0956 0.1447,0.14211 0.11332,0.093 0.25796,0.18248 0.42271,0.26924 0.16475,0.0868 0.34964,0.17074 0.54364,0.2527 0.19399,0.082 0.39736,0.16173 0.59841,0.24029 0.20105,0.0786 0.40008,0.15597 0.58601,0.23254 0.18593,0.0766 0.35884,0.15242 0.50746,0.22841 0.14862,0.076 0.27261,0.1521 0.36174,0.22893 0.0446,0.0384 0.0804,0.0769 0.10593,0.11576 0.0255,0.0389 0.0412,0.0783 0.045,0.11782 0.004,0.0395 -6.1e-4,0.0793 -0.0119,0.11989 -0.0113,0.0406 -0.0296,0.0818 -0.0543,0.1235 -0.0493,0.0835 -0.12385,0.16924 -0.21704,0.25787 -0.0932,0.0886 -0.20502,0.1799 -0.32918,0.2744 -0.12417,0.0945 -0.26084,0.19241 -0.40308,0.29352 -0.28447,0.20224 -0.59193,0.41856 -0.87126,0.65164 -0.13967,0.11654 -0.27268,0.2369 -0.39171,0.36226 -0.11903,0.12535 -0.22405,0.25526 -0.30954,0.39015 -0.0428,0.0674 -0.0751,0.14536 -0.0977,0.23151 -0.0226,0.0862 -0.0356,0.18087 -0.0403,0.28267 -0.005,0.10181 -9.9e-4,0.21065 0.01,0.32505 0.0108,0.1144 0.0287,0.23417 0.0527,0.35812 0.048,0.24788 0.12003,0.5121 0.2067,0.77979 0.0867,0.2677 0.18786,0.53896 0.29456,0.80202 0.1067,0.26306 0.21906,0.51792 0.32711,0.75189 0.10805,0.23397 0.21211,0.44692 0.30283,0.62735 0.18143,0.36087 0.30954,0.59067 0.30954,0.59067 0,0 -0.0378,0.0627 -0.0977,0.18241 -0.0598,0.11967 -0.14195,0.29582 -0.23151,0.52245 -0.0896,0.22664 -0.18622,0.50387 -0.27544,0.82476 -0.0446,0.16044 -0.0877,0.33152 -0.1266,0.51315 -0.0389,0.18162 -0.0735,0.37394 -0.10284,0.57515 -0.0294,0.20122 -0.0367,0.40704 -0.0269,0.6134 0.01,0.20637 0.0366,0.41313 0.0755,0.61599 0.0389,0.20285 0.09,0.40152 0.14779,0.59221 0.0578,0.19069 0.12207,0.37325 0.18862,0.54312 0.1331,0.33974 0.27369,0.62904 0.38085,0.83354 0.10717,0.2045 0.18139,0.32401 0.18139,0.32401 0,0 -0.0513,0.0925 -0.12868,0.25011 -0.0774,0.15765 -0.18101,0.38058 -0.28577,0.64234 -0.10475,0.26177 -0.21082,0.56252 -0.293,0.87488 -0.0411,0.15619 -0.0763,0.31508 -0.10232,0.47388 -0.0261,0.15879 -0.0427,0.3176 -0.0475,0.47232 -0.01,0.30944 -0.005,0.63061 0.0212,0.94826 0.0131,0.15883 0.0314,0.31685 0.0558,0.47181 0.0244,0.15496 0.055,0.30708 0.0925,0.45423 0.0375,0.14716 0.0817,0.28938 0.13384,0.42478 0.0521,0.13541 0.11195,0.26373 0.18035,0.38344 0.0684,0.11972 0.14518,0.23065 0.23151,0.33073 0.0863,0.10008 0.18245,0.18912 0.28835,0.26562 0.42359,0.306 1.19292,0.82632 1.85674,1.26969 0.66382,0.44336 1.22215,0.81029 1.22215,0.81029 0,0 0.27641,0.28108 0.72192,0.71261 0.4455,0.43154 1.05983,1.01301 1.73426,1.61283 0.33721,0.2999 0.68951,0.60448 1.04334,0.8971 0.35383,0.29261 0.70928,0.57337 1.05265,0.82579 0.34337,0.2524099 0.67446,0.4764599 0.9803,0.6557699 0.15292,0.0897 0.29976,0.16837 0.43822,0.23358 0.13846,0.0652 0.26902,0.11683 0.38964,0.15348 0.24124,0.0733 0.4709,0.1667 0.69195,0.2713 0.22105,0.1046 0.43338,0.22078 0.63924,0.34003 0.4117,0.23851 0.79782,0.4896 1.17873,0.68678 0.19046,0.0986 0.37975,0.18374 0.57,0.24701 0.0951,0.0316 0.19027,0.0578 0.28628,0.0775 0.096,0.0197 0.19291,0.0326 0.29042,0.0382 0.0975,0.006 0.19594,0.004 0.29559,-0.007 0.0997,-0.0105 0.20042,-0.0292 0.30283,-0.0579 0.10241,-0.0287 0.20633,-0.0668 0.31212,-0.11575 0.1058,-0.0489 0.21369,-0.10905 0.3235,-0.18035 0.1098,-0.0713 0.21389,-0.12418 0.31264,-0.16123 0.0987,-0.0371 0.19183,-0.0578 0.28009,-0.0646 0.0883,-0.007 0.17128,6.3e-4 0.24959,0.0202 0.0783,0.0195 0.15224,0.0512 0.22118,0.093 0.0689,0.0419 0.13315,0.0938 0.19327,0.154 0.0601,0.0602 0.11609,0.12848 0.16795,0.20309 0.0519,0.0746 0.0995,0.15527 0.14366,0.24029 0.0442,0.085 0.0844,0.17467 0.12144,0.26614 0.074,0.18292 0.13463,0.37479 0.18345,0.55965 0.0488,0.18487 0.0861,0.36278 0.1142,0.5178 0.0562,0.31004 0.0754,0.52813 0.0754,0.52813 0,0 -0.41794,0.60495 -1.04386,1.54616 -0.31297,0.47061 -0.67773,1.02543 -1.06867,1.63091 -0.39094,0.60548 -0.80816,1.26137 -1.22473,1.93475998 -0.41658,0.6734 -0.83279,1.36429 -1.22267,2.03864002 -0.38987,0.67435 -0.75318,1.33209 -1.06401,1.94045 -0.15542,0.30418 -0.29791,0.59614 -0.42375,0.87126 -0.12585,0.27513 -0.23532,0.53332 -0.32505,0.77102 -0.0897,0.2377 -0.15963,0.45508 -0.2067,0.64699 -0.0471,0.19191 -0.0709,0.35834 -0.0687,0.49609 0.004,0.27549 0.0226,0.54034 0.0522,0.7922 0.0296,0.25186 0.0703,0.49109 0.11782,0.71623 0.0475,0.22515 0.10213,0.43615 0.1602,0.63149 0.0581,0.19534 0.11963,0.37499 0.18087,0.53744 0.12247,0.32488 0.24356,0.58071 0.33434,0.75551 0.0908,0.17479 0.15142,0.2687101 0.15142,0.2687101 l 9.30486,10.36371 1.22834,2.11718 a 90.039444,90.039444 0 0 0 12.90309,0.94878 90.039444,90.039444 0 0 0 86.11774,-63.91289 z"
         inkscape:export-filename="detective.svg"
         inkscape:export-xdpi="28.209854"
         inkscape:export-ydpi="28.209854" /><path
         id="path1153"
         style="fill:#161616;fill-opacity:1;stroke-width:0.476458"
         d="m 336.66782,-156.59561 a 90.039444,90.039444 0 0 0 -90.03946,90.039466 90.039444,90.039444 0 0 0 77.13637,89.090169 l -1.22834,-2.117183 -9.30486,-10.363709 c 0,0 -0.0606,-0.093927 -0.15142,-0.2687173 -0.0908,-0.1747907 -0.21187,-0.4306238 -0.33434,-0.7555095 -0.0612,-0.1624428 -0.12279,-0.3420987 -0.18087,-0.5374348 -0.0581,-0.1953362 -0.11267,-0.4063435 -0.1602,-0.631486 -0.0475,-0.2251426 -0.0882,-0.4643734 -0.11782,-0.7162354 -0.0296,-0.251862 -0.0479,-0.5167053 -0.0522,-0.7921997 -0.002,-0.1377472 0.0217,-0.3041847 0.0687,-0.4960938 0.0471,-0.191909 0.11697,-0.4092875 0.2067,-0.6469889 0.0897,-0.2377013 0.1992,-0.4958882 0.32505,-0.7710124 0.12584,-0.2751242 0.26833,-0.567087 0.42375,-0.8712646 0.31083,-0.6083552 0.67414,-1.2660981 1.06401,-1.94045 0.38988,-0.674352 0.80609,-1.36524228 1.22267,-2.03863529 0.41657,-0.67339301 0.83379,-1.32928731 1.22473,-1.93476561 0.39094,-0.6054784 0.7557,-1.1603003 1.06867,-1.6309082 0.62592,-0.9412159 1.04386,-1.5461589 1.04386,-1.5461589 0,0 -0.0193,-0.2180879 -0.0754,-0.5281331 -0.0281,-0.1550226 -0.0654,-0.3329325 -0.1142,-0.5177979 -0.0488,-0.1848654 -0.10942,-0.3767266 -0.18345,-0.5596557 -0.037,-0.091465 -0.0773,-0.1811117 -0.12144,-0.2661337 -0.0442,-0.085022 -0.0918,-0.1656884 -0.14366,-0.2402954 -0.0519,-0.074607 -0.10783,-0.1428688 -0.16795,-0.2030883 -0.0601,-0.06022 -0.12433,-0.112136 -0.19327,-0.1539958 -0.0689,-0.04186 -0.14286,-0.07349 -0.22118,-0.093018 -0.0783,-0.019528 -0.16134,-0.026931 -0.24959,-0.020154 -0.0883,0.00678 -0.18134,0.027542 -0.28009,0.064595 -0.0987,0.037054 -0.20284,0.089928 -0.31264,0.1612305 -0.10981,0.071304 -0.2177,0.1314089 -0.3235,0.1803508 -0.10579,0.048942 -0.20971,0.087093 -0.31212,0.1157552 -0.10241,0.028662 -0.20317,0.047413 -0.30283,0.057878 -0.0996,0.010464 -0.19807,0.012369 -0.29559,0.00672 -0.0975,-0.00565 -0.19441,-0.018555 -0.29042,-0.038241 -0.096,-0.019685 -0.19116,-0.045878 -0.28628,-0.077515 -0.19025,-0.063274 -0.37954,-0.1484238 -0.57,-0.2470133 -0.38091,-0.1971791 -0.76703,-0.4482736 -1.17873,-0.6867798 -0.20586,-0.1192532 -0.41819,-0.2354297 -0.63924,-0.340031 -0.22105,-0.1046012 -0.45071,-0.1980077 -0.69195,-0.2713012 -0.12062,-0.036647 -0.25118,-0.088271 -0.38964,-0.153479 -0.13846,-0.065208 -0.2853,-0.1439232 -0.43822,-0.2335775 -0.30584,-0.1793086 -0.63693,-0.403359 -0.9803,-0.6557734 -0.34337,-0.252415 -0.69882,-0.533175 -1.05265,-0.82579 -0.35383,-0.292614 -0.70613,-0.597197 -1.04334,-0.897102 -0.67443,-0.599812 -1.28876,-1.181287 -1.73426,-1.612822 -0.44551,-0.431535 -0.72192,-0.712618 -0.72192,-0.712618 0,0 -0.55833,-0.366922 -1.22215,-0.810286 -0.66382,-0.443365 -1.43315,-0.963691 -1.85674,-1.26969 -0.1059,-0.0765 -0.20202,-0.165538 -0.28835,-0.265617 -0.0863,-0.100079 -0.16311,-0.211014 -0.23151,-0.330729 -0.0684,-0.119715 -0.12824,-0.248032 -0.18035,-0.383439 -0.0521,-0.135408 -0.0964,-0.277624 -0.13384,-0.424781 -0.0375,-0.147156 -0.0681,-0.299273 -0.0925,-0.454236 -0.0244,-0.154962 -0.0428,-0.312981 -0.0558,-0.471805 -0.0261,-0.31765 -0.0308,-0.638823 -0.0212,-0.948263 0.005,-0.154718 0.0215,-0.313527 0.0475,-0.472322 0.0261,-0.158796 0.0612,-0.317691 0.10232,-0.473873 0.0822,-0.312364 0.18825,-0.613115 0.293,-0.874882 0.10476,-0.261767 0.20841,-0.484693 0.28577,-0.642338 0.0774,-0.157646 0.12868,-0.250114 0.12868,-0.250114 0,0 -0.0742,-0.11951 -0.18139,-0.324012 -0.10716,-0.204501 -0.24775,-0.4938 -0.38085,-0.83354 -0.0666,-0.16987 -0.13082,-0.352427 -0.18862,-0.54312 -0.0578,-0.190693 -0.1089,-0.389354 -0.14779,-0.592212 -0.0389,-0.202858 -0.0656,-0.409618 -0.0755,-0.615983 -0.01,-0.206365 -0.003,-0.412184 0.0269,-0.613399 0.0294,-0.201216 0.064,-0.393535 0.10284,-0.575159 0.0389,-0.181623 0.082,-0.352703 0.1266,-0.513147 0.0892,-0.320886 0.18587,-0.598123 0.27544,-0.824755 0.0896,-0.226633 0.17168,-0.402779 0.23151,-0.522449 0.0598,-0.119671 0.0977,-0.182418 0.0977,-0.182418 0,0 -0.12811,-0.229796 -0.30954,-0.590662 -0.0907,-0.180432 -0.19478,-0.39338 -0.30283,-0.627352 -0.10805,-0.233971 -0.22041,-0.488832 -0.32711,-0.751892 -0.1067,-0.263059 -0.20788,-0.534322 -0.29456,-0.802018 -0.0867,-0.267696 -0.15873,-0.531916 -0.2067,-0.779797 -0.024,-0.123941 -0.0419,-0.243716 -0.0527,-0.358118 -0.0108,-0.114402 -0.0145,-0.223237 -0.01,-0.325045 0.005,-0.101807 0.0178,-0.196513 0.0403,-0.28267 0.0226,-0.08616 0.0549,-0.164062 0.0977,-0.23151 0.0855,-0.134897 0.19051,-0.264805 0.30954,-0.390157 0.11903,-0.125353 0.25204,-0.245711 0.39171,-0.362252 0.27933,-0.233082 0.58679,-0.449404 0.87126,-0.65164 0.14224,-0.101118 0.27891,-0.199016 0.40308,-0.293522 0.12416,-0.09451 0.23598,-0.185775 0.32918,-0.274402 0.0932,-0.08863 0.16771,-0.174384 0.21704,-0.257865 0.0247,-0.04174 0.043,-0.08291 0.0543,-0.123507 0.0113,-0.04059 0.0156,-0.08036 0.0119,-0.119889 -0.004,-0.03954 -0.0194,-0.07894 -0.045,-0.117822 -0.0255,-0.03889 -0.0614,-0.07734 -0.10593,-0.115756 -0.0891,-0.07683 -0.21312,-0.152931 -0.36174,-0.228926 -0.14862,-0.07599 -0.32153,-0.151838 -0.50746,-0.22841 -0.18593,-0.07657 -0.38496,-0.153986 -0.58601,-0.232544 -0.20105,-0.07856 -0.40442,-0.158342 -0.59841,-0.240295 -0.194,-0.08195 -0.37889,-0.16594 -0.54364,-0.252698 -0.16475,-0.08676 -0.30939,-0.176262 -0.42271,-0.269234 -0.0567,-0.04649 -0.10505,-0.09381 -0.1447,-0.142111 -0.0396,-0.0483 -0.0701,-0.0975 -0.0899,-0.147794 -0.0794,-0.20119 -0.14409,-0.404167 -0.19069,-0.619084 -0.0466,-0.214917 -0.0756,-0.442076 -0.0832,-0.691947 -0.008,-0.249872 0.006,-0.52232 0.0439,-0.828373 0.0376,-0.306054 0.0995,-0.645414 0.18861,-1.028878 0.0223,-0.09587 0.0534,-0.190303 0.0925,-0.28267 0.0391,-0.09237 0.086,-0.182765 0.13953,-0.271302 0.0536,-0.08854 0.11376,-0.175042 0.17932,-0.259415 0.0655,-0.08437 0.13676,-0.166619 0.21187,-0.246497 0.15023,-0.159755 0.31706,-0.310324 0.49093,-0.450102 0.17386,-0.139777 0.35475,-0.268882 0.53278,-0.386023 0.17803,-0.11714 0.35301,-0.222348 0.51573,-0.314192 0.16273,-0.09184 0.31285,-0.170205 0.4408,-0.234095 0.25591,-0.127778 0.42323,-0.196887 0.42323,-0.196887 l -0.52916,-2.099613 -3.20963,0.04186 c 0,0 -0.0415,0.0039 -0.12247,0 -0.081,-0.0039 -0.20164,-0.01557 -0.36122,-0.04651 -0.15958,-0.03094 -0.35803,-0.08112 -0.59376,-0.162264 -0.23574,-0.08114 -0.50909,-0.192766 -0.81856,-0.347266 -0.15473,-0.07725 -0.31821,-0.165169 -0.49092,-0.2651 -0.17271,-0.09993 -0.35429,-0.211942 -0.54467,-0.337447 -0.19038,-0.125505 -0.38963,-0.264605 -0.59738,-0.418579 -0.20775,-0.153974 -0.42423,-0.323159 -0.64906,-0.508496 -0.22482,-0.185337 -0.45811,-0.387087 -0.6997,-0.606681 -0.24158,-0.219595 -0.49126,-0.456906 -0.7493,-0.713652 -0.25805,-0.256746 -0.5242,-0.532614 -0.7984,-0.829407 -0.27421,-0.296792 -0.5564,-0.614731 -0.84646,-0.954463 -1.16026,-1.358928 -1.93146,-2.26221 -2.49753,-2.969328 -0.28303,-0.353559 -0.51455,-0.657982 -0.7183,-0.945679 -0.20375,-0.287697 -0.3797,-0.558865 -0.55035,-0.845426 -0.17066,-0.286562 -0.33613,-0.588808 -0.51987,-0.938961 -0.18374,-0.350153 -0.38538,-0.747811 -0.62838,-1.226282 -0.243,-0.478471 -0.52748,-1.037424 -0.87592,-1.708939 -0.34844,-0.671516 -0.76084,-1.456098 -1.2609,-2.385385 -0.25003,-0.464643 -0.47735,-0.927369 -0.68317,-1.387512 -0.20581,-0.460143 -0.39011,-0.917571 -0.55552,-1.369942 -0.1654,-0.452371 -0.31199,-0.899677 -0.4408,-1.341003 -0.12881,-0.441327 -0.23986,-0.876787 -0.33589,-1.303797 -0.096,-0.42701 -0.17686,-0.845799 -0.24392,-1.25522 -0.0671,-0.409422 -0.12036,-0.809299 -0.16226,-1.19786 -0.0419,-0.388561 -0.0725,-0.765735 -0.093,-1.130164 -0.0206,-0.364429 -0.0311,-0.71614 -0.0341,-1.053165 -0.003,-0.337025 0.002,-0.659484 0.0124,-0.965833 0.0107,-0.306348 0.0269,-0.59628 0.0475,-0.868681 0.0412,-0.5448 0.0986,-1.018806 0.15658,-1.408182 0.058,-0.389377 0.11648,-0.694495 0.16071,-0.902271 0.0442,-0.207776 0.0744,-0.318327 0.0744,-0.318327 0,0 0.18097,-0.268674 0.51004,-0.667142 0.16454,-0.199234 0.36603,-0.430834 0.60048,-0.677478 0.23446,-0.246645 0.50175,-0.508144 0.79789,-0.767396 0.14807,-0.129625 0.30314,-0.258737 0.46509,-0.384989 0.16194,-0.126252 0.33059,-0.249926 0.50539,-0.368453 0.1748,-0.118527 0.35599,-0.232028 0.5426,-0.338481 0.18662,-0.106452 0.37879,-0.205562 0.5762,-0.295589 0.1974,-0.09003 0.40002,-0.171044 0.60719,-0.240295 0.20717,-0.06925 0.41869,-0.126925 0.63459,-0.171049 0.2159,-0.04412 0.4363,-0.07475 0.65991,-0.0894 0.2236,-0.01465 0.45081,-0.0135 0.68109,0.0057 0.23028,0.01918 0.45967,0.04943 0.68833,0.0894 0.22867,0.03997 0.45644,0.08994 0.68317,0.149345 0.22673,0.0594 0.45247,0.128186 0.67696,0.205672 0.22448,0.07749 0.44781,0.163652 0.66972,0.257866 0.22192,0.09421 0.44243,0.196337 0.66146,0.305924 0.21904,0.109588 0.43632,0.226759 0.65216,0.350366 0.21584,0.123608 0.43001,0.253885 0.64234,0.390158 0.21232,0.136272 0.42299,0.278229 0.63148,0.425813 0.417,0.295169 0.82599,0.611838 1.22577,0.944129 0.39977,0.332291 0.79044,0.680631 1.17047,1.039213 0.38003,0.358582 0.74967,0.727183 1.10742,1.101225 0.35776,0.374041 0.70369,0.753044 1.03663,1.131713 0.33295,0.378669 0.66174,0.765604 0.98806,1.166338 0.32631,0.400733 0.64985,0.815695 0.97203,1.251086 0.32218,0.435391 0.64322,0.890919 0.96377,1.37356 0.32054,0.48264 0.64081,0.992307 0.96221,1.53479 0.32141,0.542482 0.64366,1.117793 0.96842,1.73271 0.32476,0.614918 0.65176,1.269445 0.98237,1.969389 0.3306,0.699944 0.66512,1.44571 1.00407,2.243274 0.33895,0.797564 0.6827,1.64659 1.0325,2.554366 0.17489,0.453888 0.32425,0.897436 0.45113,1.330152 0.12689,0.432715 0.23089,0.854972 0.31471,1.265555 0.0838,0.410584 0.14757,0.809851 0.19327,1.197343 0.0457,0.387493 0.0738,0.763105 0.0863,1.126546 0.0125,0.363442 0.01,0.714734 -0.006,1.053166 -0.0157,0.338432 -0.0442,0.664222 -0.0832,0.976685 -0.039,0.312462 -0.0884,0.611569 -0.14573,0.897103 -0.0574,0.285533 -0.12303,0.557292 -0.19378,0.814937 -0.0708,0.257645 -0.14661,0.500874 -0.22583,0.729671 -0.0792,0.228798 -0.1617,0.443348 -0.24443,0.642338 -0.0827,0.198991 -0.16571,0.382647 -0.24701,0.550871 -0.0813,0.168224 -0.16072,0.320839 -0.23565,0.457336 -0.14986,0.272996 -0.28201,0.481332 -0.37672,0.621668 -0.0947,0.140335 -0.15193,0.21239 -0.15193,0.21239 0,0 0.0218,0.184241 0.0631,0.446484 0.0412,0.262244 0.10166,0.602662 0.1788,0.91519 0.0386,0.156264 0.0811,0.305506 0.12764,0.434599 0.0465,0.129092 0.097,0.23825 0.15089,0.313676 0.0269,0.03771 0.0551,0.06697 0.0837,0.0863 0.0286,0.01933 0.0581,0.02872 0.0884,0.02636 0.0303,-0.0024 0.0612,-0.01655 0.093,-0.04393 0.0318,-0.02738 0.0644,-0.06833 0.0977,-0.124023 0.0665,-0.111392 0.14634,-0.201708 0.23565,-0.274919 0.0893,-0.07321 0.18772,-0.129088 0.29093,-0.171049 0.10322,-0.04196 0.21114,-0.07021 0.31937,-0.08785 0.10822,-0.01764 0.21706,-0.02455 0.32142,-0.0248 0.20872,-5.02e-4 0.40063,0.02679 0.54054,0.05426 0.13991,0.02747 0.22789,0.05478 0.22789,0.05478 l 13.95109,12.393042 8.51731,18.489311 3.46852,1.364774 11.71556,14.53451326 6.97839,-27.09033526 -6.22133,-10.786422 9.3493,-8.48372 c 0,0 -0.3673,-0.309377 -0.86454,-0.722437 -0.49724,-0.41306 -1.12441,-0.929804 -1.64538,-1.342553 -0.0651,-0.05159 -0.13578,-0.09748 -0.21084,-0.13901 -0.0751,-0.04153 -0.15457,-0.0782 -0.23771,-0.110587 -0.16628,-0.06477 -0.34697,-0.112605 -0.53434,-0.146245 -0.18737,-0.03364 -0.38164,-0.05324 -0.57516,-0.06305 -0.19351,-0.0098 -0.38631,-0.0098 -0.57102,-0.0031 -0.36941,0.01348 -0.70635,0.05298 -0.95085,0.08888 -0.24449,0.03591 -0.39635,0.06821 -0.39635,0.06821 0,0 -0.30229,0.188892 -0.81184,0.469222 -0.25478,0.140165 -0.56139,0.302975 -0.90796,0.476973 -0.34656,0.173998 -0.73311,0.358938 -1.14773,0.542603 -0.41462,0.183665 -0.85725,0.366202 -1.3162,0.535368 -0.22947,0.08458 -0.46308,0.165935 -0.69918,0.242362 -0.2361,0.07643 -0.47492,0.148174 -0.71469,0.213424 -0.23976,0.06525 -0.48042,0.12413 -0.72088,0.175183 -0.24047,0.05105 -0.48062,0.09381 -0.71882,0.127641 -0.2382,0.03383 -0.47449,0.05875 -0.70745,0.07235 -0.23296,0.0136 -0.46254,0.01587 -0.6873,0.0062 -0.89905,-0.03866 -1.53394,-0.06218 -2.01228,-0.09043 -0.23917,-0.01413 -0.43947,-0.0294 -0.61391,-0.04806 -0.17444,-0.01866 -0.32325,-0.04077 -0.45992,-0.06873 -0.13668,-0.02796 -0.26119,-0.06185 -0.38706,-0.103869 -0.12587,-0.04202 -0.25277,-0.09213 -0.39481,-0.152963 -0.28407,-0.121664 -0.62741,-0.286109 -1.13791,-0.511596 -0.12763,-0.05637 -0.24672,-0.117141 -0.35761,-0.181901 -0.11088,-0.06476 -0.21371,-0.13308 -0.30902,-0.204639 -0.0953,-0.07156 -0.18316,-0.146472 -0.26407,-0.223242 -0.0809,-0.07677 -0.15506,-0.155768 -0.22272,-0.236161 -0.13533,-0.160787 -0.24495,-0.327243 -0.33435,-0.492994 -0.0894,-0.165751 -0.15854,-0.330848 -0.21136,-0.488859 -0.0528,-0.15801 -0.0897,-0.308919 -0.11523,-0.446484 -0.0256,-0.137565 -0.0398,-0.261455 -0.0476,-0.365869 -0.0154,-0.208829 -0.004,-0.338998 -0.004,-0.338998 0,0 0.0615,-0.196891 0.13901,-0.498677 0.0388,-0.150893 0.0814,-0.327793 0.12247,-0.519348 0.041,-0.191556 0.0803,-0.397652 0.11214,-0.606682 0.0319,-0.209029 0.0564,-0.421454 0.0677,-0.624768 0.0113,-0.203313 0.01,-0.397649 -0.0109,-0.572058 -0.0103,-0.0872 -0.0255,-0.169316 -0.046,-0.244946 -0.0204,-0.07563 -0.046,-0.145031 -0.078,-0.206189 -0.032,-0.06116 -0.0702,-0.114344 -0.11524,-0.15813 -0.045,-0.04379 -0.0967,-0.07829 -0.15606,-0.101802 -0.23758,-0.09406 -0.51845,-0.184602 -0.8077,-0.284738 -0.28926,-0.100136 -0.587,-0.209724 -0.85887,-0.341581 -0.13593,-0.06593 -0.26531,-0.137339 -0.38395,-0.216007 -0.11864,-0.07867 -0.22665,-0.164285 -0.31936,-0.258899 -0.0927,-0.09461 -0.17027,-0.19836 -0.22841,-0.312126 -0.0291,-0.05688 -0.0535,-0.116011 -0.0723,-0.178284 -0.0188,-0.06227 -0.0318,-0.127791 -0.0393,-0.195853 -0.0149,-0.136126 -0.0127,-0.271344 0.003,-0.404627 0.0158,-0.133282 0.0449,-0.264284 0.0832,-0.390674 0.0383,-0.126389 0.0859,-0.248354 0.13849,-0.363802 0.0525,-0.115447 0.10992,-0.224588 0.16847,-0.325044 0.11709,-0.200913 0.23813,-0.367556 0.32969,-0.484209 0.0916,-0.116653 0.154,-0.183451 0.154,-0.183451 0,0 -0.0754,0.01573 -0.19844,0.03256 -0.12299,0.01682 -0.29355,0.03473 -0.48421,0.04031 -0.19066,0.0056 -0.4016,-0.0014 -0.60461,-0.03514 -0.10151,-0.01687 -0.20086,-0.04039 -0.29508,-0.07235 -0.0942,-0.03196 -0.18301,-0.07243 -0.26303,-0.12299 -0.08,-0.05055 -0.1533,-0.111648 -0.21962,-0.182418 -0.0663,-0.07077 -0.12593,-0.150868 -0.17932,-0.239778 -0.0534,-0.08891 -0.10038,-0.186481 -0.14159,-0.291456 -0.0412,-0.104974 -0.0766,-0.217449 -0.10646,-0.336413 -0.0298,-0.118964 -0.0542,-0.244293 -0.0734,-0.375171 -0.0192,-0.130878 -0.0331,-0.267528 -0.0424,-0.408244 -0.0186,-0.281432 -0.0179,-0.580501 -0.002,-0.888834 0.008,-0.154168 -0.008,-0.30853 -0.0413,-0.461471 -0.0338,-0.152941 -0.0858,-0.304059 -0.14987,-0.450618 -0.0641,-0.146559 -0.1406,-0.288726 -0.22324,-0.423747 -0.0826,-0.135022 -0.17145,-0.263044 -0.26096,-0.381372 -0.17902,-0.236657 -0.3603,-0.434658 -0.49661,-0.573609 -0.13632,-0.13895 -0.22738,-0.219108 -0.22738,-0.219108 0,0 -0.22857,0.07514 -0.58963,0.171566 -0.18053,0.04821 -0.39431,0.101842 -0.62942,0.153996 -0.23511,0.05215 -0.49116,0.103075 -0.75706,0.145727 -0.2659,0.04265 -0.54151,0.07693 -0.81442,0.09664 -0.2729,0.01971 -0.54332,0.02495 -0.79943,0.0083 -0.12806,-0.0083 -0.25267,-0.02242 -0.37207,-0.04237 -0.1194,-0.01996 -0.2333,-0.04581 -0.34107,-0.07906 -0.10777,-0.03326 -0.20914,-0.07372 -0.3023,-0.121957 -0.0932,-0.04823 -0.17815,-0.104605 -0.25374,-0.169498 -0.0756,-0.06489 -0.14516,-0.131635 -0.20877,-0.200505 -0.0636,-0.06887 -0.12154,-0.139582 -0.17415,-0.211356 -0.10521,-0.14355 -0.18933,-0.292055 -0.25631,-0.4408 -0.067,-0.148746 -0.117,-0.29801 -0.15348,-0.443384 -0.0365,-0.145374 -0.0597,-0.286695 -0.0734,-0.42013 -0.0137,-0.133434 -0.0179,-0.258625 -0.0165,-0.371553 0.001,-0.112928 0.008,-0.213804 0.0171,-0.297656 0.0172,-0.167706 0.0413,-0.268718 0.0413,-0.268718 l 2.34249,-10.646895 -2.84531,-4.108277 h -5.1e-4 c 0,0 -0.49809,0.162721 -1.72135,0.533301 -1.22326,0.37058 -3.1717,0.949021 -6.07353,1.78077 -0.36272,0.103969 -0.70866,0.194556 -1.03818,0.272335 -0.32951,0.07778 -0.6428,0.143188 -0.94051,0.197404 -0.29771,0.05421 -0.57966,0.09695 -0.84697,0.130225 -0.26731,0.03328 -0.51978,0.05687 -0.7581,0.07183 -0.23831,0.01496 -0.46262,0.02139 -0.67334,0.02067 -0.21072,-7.23e-4 -0.40819,-0.0084 -0.59273,-0.02222 -0.18454,-0.01378 -0.35649,-0.03366 -0.51625,-0.05788 -0.15976,-0.02422 -0.30699,-0.05272 -0.44338,-0.08475 -0.27278,-0.06406 -0.50062,-0.141104 -0.68833,-0.220658 -0.18772,-0.07955 -0.33569,-0.161605 -0.44959,-0.235644 -0.11389,-0.07404 -0.19361,-0.140064 -0.24494,-0.187586 -0.0513,-0.04752 -0.0739,-0.077 -0.0739,-0.077 0,0 1.59245,-1.617057 3.57601,-3.606498 0.99178,-0.99472 2.08109,-2.082749 3.11816,-3.107821 1.03706,-1.025071 2.02201,-1.987532 2.80396,-2.731616 0.19549,-0.18602 0.37971,-0.374572 0.55345,-0.564823 0.17375,-0.190252 0.33663,-0.381757 0.4899,-0.574125 0.15326,-0.192369 0.29691,-0.385372 0.43098,-0.577743 0.13406,-0.192371 0.25852,-0.384383 0.37465,-0.574642 0.11613,-0.190259 0.22403,-0.37879 0.3235,-0.564823 0.0995,-0.186033 0.19084,-0.369628 0.27491,-0.549321 0.16815,-0.359385 0.30646,-0.703923 0.42065,-1.02526 0.1142,-0.321338 0.204,-0.619359 0.2744,-0.885734 0.0704,-0.266375 0.12136,-0.501067 0.15813,-0.695565 0.0735,-0.388996 0.0904,-0.617533 0.0904,-0.617533 0,0 0.1143,-0.680969 0.33021,-1.778703 0.10795,-0.548867 0.24136,-1.202117 0.39842,-1.925981 0.15707,-0.723864 0.33761,-1.518707 0.54054,-2.351277 0.20293,-0.832574 0.42831,-1.702644 0.67386,-2.577624 0.12278,-0.43749 0.25061,-0.8764 0.38344,-1.31207 0.13282,-0.43566 0.27043,-0.86842 0.41289,-1.29397 0.14247,-0.42556 0.28962,-0.84393 0.44132,-1.25109 0.1517,-0.40716 0.30817,-0.80292 0.46871,-1.18339 0.16053,-0.38047 0.32506,-0.74539 0.49402,-1.09089 0.16896,-0.3455 0.34237,-0.67186 0.51935,-0.9741 0.17698,-0.30224 0.37198,-0.6062 0.58394,-0.91106 0.21197,-0.30485 0.44077,-0.61009 0.6842,-0.91519 0.24343,-0.30509 0.5017,-0.61015 0.77308,-0.91312 0.27138,-0.30297 0.55582,-0.60431 0.85163,-0.90279 0.29581,-0.29847 0.60311,-0.59412 0.91984,-0.88573 0.31673,-0.29162 0.64306,-0.57906 0.9772,-0.86145 0.33414,-0.28238 0.67568,-0.55965 1.02371,-0.83044 0.34803,-0.27078 0.70251,-0.53486 1.06092,-0.79168 0.35841,-0.25682 0.72096,-0.50624 1.08624,-0.74672 0.36527,-0.24049 0.73312,-0.47223 1.10174,-0.69402 0.36862,-0.22179 0.73793,-0.43387 1.10639,-0.63459 0.36845,-0.20071 0.73593,-0.39012 1.10071,-0.5674 0.36477,-0.17728 0.72711,-0.34204 1.08469,-0.49351 0.35758,-0.15148 0.71042,-0.2896 1.0573,-0.4129 0.34687,-0.1233 0.68744,-0.23176 1.02009,-0.32452 0.33264,-0.0928 0.65764,-0.17011 0.97255,-0.22997 0.47236,-0.0898 0.97809,-0.16487 1.50688,-0.22737 0.5288,-0.0625 1.08048,-0.11228 1.64486,-0.15141 0.56438,-0.0391 1.14119,-0.0677 1.72031,-0.0873 0.57912,-0.0196 1.16073,-0.03 1.73375,-0.0341 0.95502,-0.007 1.88668,0.005 2.74763,0.0269 0.86096,0.022 1.65088,0.0541 2.32131,0.0868 1.34085,0.0654 2.20451,0.13384 2.20451,0.13384 0,0 0.16624,0.0292 0.46768,0.0935 0.30143,0.0643 0.73784,0.16401 1.27795,0.30489 0.54012,0.14089 1.18412,0.32317 1.90015,0.55294 0.35801,0.11488 0.73374,0.24144 1.12396,0.38086 0.39022,0.13941 0.79464,0.29134 1.20923,0.45682 0.41458,0.16547 0.83962,0.34435 1.27072,0.53743 0.43111,0.19308 0.86815,0.40049 1.30793,0.6227 0.43978,0.22221 0.88231,0.45922 1.32292,0.7121 0.4406,0.25289 0.87951,0.52157 1.3131,0.80667 0.43359,0.2851 0.86181,0.58704 1.28054,0.90589 0.41872,0.31885 0.82768,0.65459 1.2237,1.00872 0.19801,0.17707 0.39308,0.35901 0.58394,0.54519 0.19086,0.18617 0.37796,0.37658 0.56069,0.57206 0.18273,0.19547 0.36071,0.39602 0.53433,0.60099 0.17363,0.20498 0.3429,0.41425 0.50643,0.62891 0.32707,0.42931 0.64077,0.86464 0.94206,1.30328 0.3013,0.43863 0.58986,0.88081 0.8661,1.32395 0.27624,0.44314 0.5403,0.88733 0.7922,1.33015 0.2519,0.44282 0.49159,0.8842 0.71985,1.32188 0.22826,0.43768 0.44528,0.87143 0.65061,1.29915 0.20533,0.42772 0.39928,0.84951 0.58239,1.26245 0.18312,0.41294 0.35516,0.81744 0.51677,1.21078 0.16161,0.39334 0.3129,0.77572 0.45372,1.14463 0.28162,0.73784 0.52232,1.42173 0.72502,2.03296 0.2027,0.611225 0.36715,1.149719 0.49661,1.595768 0.25891,0.892097 0.37724,1.414901 0.37724,1.414901 l 9.38444,3.733622 c 0,0 0.28849,0.189036 0.68781,0.497644 0.19966,0.154304 0.4274,0.338662 0.65991,0.544153 0.23251,0.20549 0.4702,0.432427 0.69091,0.671793 0.11035,0.119683 0.2162,0.242513 0.31523,0.36742 0.099,0.124906 0.19124,0.251856 0.27337,0.379821 0.0821,0.127966 0.1543,0.256645 0.21394,0.385507 0.0596,0.128861 0.1064,0.257912 0.13797,0.385506 0.0316,0.127593 0.0481,0.25411 0.046,0.378271 -0.002,0.124162 -0.0228,0.245753 -0.0641,0.364319 -0.0413,0.118566 -0.10353,0.233876 -0.18966,0.344682 -0.0861,0.110806 -0.19575,0.216927 -0.33228,0.31781 -0.13652,0.100882 -0.29339,0.191939 -0.46664,0.273885 -0.17324,0.08195 -0.36295,0.154931 -0.56689,0.219625 -0.20393,0.06469 -0.42202,0.121406 -0.6506,0.170532 -0.22859,0.04913 -0.468,0.09085 -0.7152,0.126091 -0.24721,0.03524 -0.50192,0.06377 -0.76171,0.08682 -0.2598,0.02304 -0.52431,0.0407 -0.79065,0.05323 -0.53269,0.02505 -1.07256,0.03068 -1.59526,0.02377 -0.52269,-0.0069 -1.0285,-0.02629 -1.49293,-0.05168 -0.46442,-0.02539 -0.88751,-0.05693 -1.2454,-0.08733 -0.71577,-0.0608 -1.16995,-0.117822 -1.16995,-0.117822 0,0 -0.0134,0.0026 -0.0351,0.0155 -0.0218,0.0129 -0.0523,0.03599 -0.0863,0.07648 -0.034,0.04049 -0.0717,0.0981 -0.10852,0.180868 -0.0368,0.08277 -0.0728,0.190472 -0.10284,0.330212 -0.03,0.13974 -0.0539,0.311571 -0.0677,0.522966 -0.0138,0.211394 -0.0172,0.462422 -0.005,0.76016 0.012,0.297738 0.0395,0.642511 0.0868,1.04128 0.0473,0.398769 0.11461,0.85132 0.20671,1.365808 0.0461,0.257244 0.0827,0.512279 0.1111,0.763778 0.0284,0.251498 0.0483,0.499765 0.061,0.74414 0.0127,0.244376 0.0181,0.485012 0.0171,0.720887 -10e-4,0.235874 -0.008,0.466985 -0.0212,0.692981 -0.0255,0.451991 -0.0722,0.883047 -0.13281,1.287259 -0.0606,0.404213 -0.13494,0.781651 -0.21498,1.127063 -0.08,0.345412 -0.16593,0.65872 -0.24959,0.93431 -0.0837,0.275591 -0.16515,0.513219 -0.23668,0.707967 -0.14307,0.389497 -0.24598,0.606165 -0.24598,0.606165 l 2.89491,5.354712 c 0,0 0.188,-0.08236 0.50902,-0.233578 0.32101,-0.151214 0.77462,-0.370884 1.30534,-0.644921 0.53073,-0.274037 1.13873,-0.602533 1.76785,-0.971001 0.31456,-0.184233 0.63463,-0.378325 0.95292,-0.580843 0.31829,-0.202518 0.63499,-0.413716 0.94309,-0.630969 0.15405,-0.108626 0.31724,-0.213981 0.48886,-0.31626 0.17162,-0.102279 0.35135,-0.201136 0.53795,-0.297139 0.3732,-0.192007 0.77361,-0.371655 1.19114,-0.538985 0.41754,-0.167331 0.85237,-0.322382 1.29347,-0.465605 0.44109,-0.143223 0.88883,-0.274606 1.33273,-0.394291 0.4439,-0.119685 0.88407,-0.227812 1.31,-0.324528 0.42593,-0.09672 0.83753,-0.181999 1.22473,-0.256315 0.3872,-0.07432 0.74976,-0.137684 1.07745,-0.19017 0.3277,-0.05249 0.62073,-0.09435 0.86817,-0.125573 0.24743,-0.03122 0.47676,-0.05337 0.68936,-0.0646 0.2126,-0.01123 0.40848,-0.0115 0.58808,0.0016 0.1796,0.01305 0.34301,0.03951 0.49144,0.08113 0.14843,0.04162 0.2814,0.09865 0.40049,0.173117 0.0596,0.03723 0.11591,0.07881 0.16847,0.125056 0.0525,0.04625 0.10148,0.09716 0.14728,0.152963 0.0916,0.111598 0.16972,0.242825 0.23564,0.395841 0.0659,0.153016 0.11967,0.327866 0.16175,0.526583 0.0421,0.198717 0.0729,0.421023 0.093,0.669727 0.01,0.12435 0.0115,0.263051 0.006,0.414445 -0.005,0.151394 -0.0172,0.315789 -0.0357,0.490926 -0.0369,0.350273 -0.098,0.744515 -0.17467,1.169954 -0.15335,0.850878 -0.36944,1.825845 -0.57929,2.81895 -0.10492,0.496552 -0.20843,0.997848 -0.30179,1.490348 -0.0934,0.4925 -0.17666,0.976113 -0.24133,1.438155 -0.0647,0.462042 -0.11033,0.902236 -0.12919,1.307414 -0.009,0.202588 -0.0125,0.396388 -0.007,0.579809 0.005,0.183422 0.0188,0.356328 0.0408,0.517281 0.022,0.160954 0.0508,0.320746 0.0858,0.478524 0.035,0.157778 0.0759,0.313987 0.12196,0.467672 0.0921,0.307369 0.20433,0.605413 0.32918,0.890901 0.12485,0.285489 0.26234,0.558156 0.40463,0.814421 0.14228,0.256265 0.28965,0.49602 0.43408,0.715719 0.14443,0.219698 0.28627,0.419524 0.41754,0.595312 0.13127,0.175789 0.25169,0.327634 0.3545,0.452169 0.20562,0.249071 0.33952,0.38809 0.33952,0.38809 0,0 0.59469,0.374966 1.56373,1.003556 0.96903,0.62859 2.31233,1.510908 3.80803,2.525944 0.74785,0.507519 1.53352,1.048409 2.33009,1.607137 0.79657,0.558728 1.60366,1.135471 2.39366,1.715141 0.78999,0.57967 1.5632,1.162367 2.29133,1.732711 0.36406,0.285172 0.717,0.567227 1.05523,0.844393 0.33823,0.277165 0.6619,0.549045 0.96738,0.81442 0.30548,0.265375 0.61505,0.557443 0.92708,0.871265 0.31203,0.313822 0.62638,0.649442 0.94154,1.00304 0.31516,0.353597 0.63081,0.725307 0.94568,1.110009 0.31487,0.384703 0.62883,0.782456 0.94,1.189592 0.31116,0.407136 0.61942,0.823469 0.92345,1.244368 0.30404,0.420899 0.60413,0.846283 0.89762,1.272274 0.46845,0.679933 0.90505,1.351668 1.33532,2.015898 a 90.039444,90.039444 0 0 0 3.92173,-26.126054 90.039444,90.039444 0 0 0 -90.03947,-90.039467 z" /></g></g></svg>
